<svg width="85" height="24" viewBox="0 0 85 24" fill="none" xmlns="http://www.w3.org/2000/svg">
<path d="M0 11.8036C0 6.23931 0 3.45718 1.72859 1.72859C3.45718 0 6.23931 0 11.8036 0C17.3678 0 20.1499 0 21.8786 1.72859C23.6071 3.45718 23.6071 6.23931 23.6071 11.8036C23.6071 17.3678 23.6071 20.1499 21.8786 21.8786C20.1499 23.6071 17.3678 23.6071 11.8036 23.6071C6.23931 23.6071 3.45718 23.6071 1.72859 21.8786C0 20.1499 0 17.3678 0 11.8036Z" fill="#243A5A"/>
<path d="M14.1643 15.3447C14.4902 15.3447 14.7604 15.6115 14.6957 15.931C14.5813 16.4952 14.3033 17.0182 13.8902 17.4313C13.3368 17.9847 12.5862 18.2956 11.8036 18.2956C11.0209 18.2956 10.2704 17.9847 9.717 17.4313C9.30388 17.0182 9.0259 16.4952 8.91153 15.931C8.84672 15.6115 9.11691 15.3447 9.44286 15.3447H14.1643Z" fill="#2DF8BB"/>
<path d="M15.405 10.4914C15.0902 10.5757 14.8974 10.9051 15.057 11.1892C15.225 11.4883 15.4575 11.7494 15.7402 11.952C16.1841 12.2701 16.7246 12.4245 17.2697 12.3887C17.8146 12.353 18.3304 12.1295 18.729 11.7561C19.1277 11.3828 19.3844 10.8827 19.4557 10.3412C19.527 9.79972 19.4084 9.25026 19.12 8.78644C18.8316 8.32268 18.3912 7.97324 17.8741 7.79766C17.3569 7.62208 16.7949 7.63129 16.2837 7.82368C15.9582 7.94621 15.6661 8.13819 15.4264 8.38359C15.1987 8.61677 15.2996 8.98486 15.5819 9.14781L15.8813 9.32067C16.3366 9.5836 16.2469 10.2658 15.739 10.4019L15.405 10.4914Z" fill="#2DF8BB"/>
<path d="M8.20212 10.4914C8.51698 10.5757 8.70979 10.9051 8.55015 11.1892C8.38213 11.4883 8.14972 11.7494 7.86702 11.952C7.42309 12.2701 6.88254 12.4245 6.33757 12.3887C5.79255 12.353 5.2768 12.1295 4.87818 11.7561C4.47955 11.3828 4.22271 10.8827 4.15143 10.3412C4.08014 9.79972 4.19881 9.25026 4.48722 8.78644C4.77563 8.32268 5.21594 7.97324 5.73312 7.79766C6.25028 7.62208 6.81237 7.63129 7.32352 7.82368C7.64901 7.94621 7.94109 8.13819 8.18082 8.38359C8.40857 8.61677 8.30753 8.98486 8.02525 9.14781L7.72585 9.32067C7.27053 9.5836 7.36035 10.2658 7.8682 10.4019L8.20212 10.4914Z" fill="#2DF8BB"/>
<path d="M28.5223 9.00846V7.15263H36.5135V9.00846H33.6466V16.6072H31.3938V9.00846H28.5223ZM39.9112 16.7411C39.1664 16.7411 38.5262 16.5887 37.9907 16.284C37.4583 15.9763 37.0474 15.5485 36.7581 15.0006C36.4719 14.4497 36.3288 13.8111 36.3288 13.0848C36.3288 12.3554 36.4719 11.7168 36.7581 11.169C37.0474 10.6181 37.4583 10.1903 37.9907 9.88559C38.5262 9.57782 39.1664 9.42394 39.9112 9.42394C40.656 9.42394 41.2946 9.57782 41.827 9.88559C42.3625 10.1903 42.7734 10.6181 43.0596 11.169C43.3489 11.7168 43.4936 12.3554 43.4936 13.0848C43.4936 13.8111 43.3489 14.4497 43.0596 15.0006C42.7734 15.5485 42.3625 15.9763 41.827 16.284C41.2946 16.5887 40.656 16.7411 39.9112 16.7411ZM39.925 15.0376C40.1959 15.0376 40.4252 14.9545 40.6129 14.7883C40.8006 14.6221 40.9437 14.3913 41.0422 14.0958C41.1438 13.8004 41.1946 13.4587 41.1946 13.071C41.1946 12.677 41.1438 12.3323 41.0422 12.0369C40.9437 11.7414 40.8006 11.5106 40.6129 11.3444C40.4252 11.1782 40.1959 11.0951 39.925 11.0951C39.645 11.0951 39.408 11.1782 39.2141 11.3444C39.0233 11.5106 38.8771 11.7414 38.7755 12.0369C38.6771 12.3323 38.6278 12.677 38.6278 13.071C38.6278 13.4587 38.6771 13.8004 38.7755 14.0958C38.8771 14.3913 39.0233 14.6221 39.2141 14.7883C39.408 14.9545 39.645 15.0376 39.925 15.0376ZM44.65 19.2663V9.51627H46.8844V10.7304H46.9536C47.046 10.515 47.1768 10.3072 47.346 10.1072C47.5184 9.90713 47.7369 9.74401 48.0016 9.61783C48.2693 9.48857 48.5894 9.42394 48.9618 9.42394C49.4542 9.42394 49.9143 9.5532 50.3421 9.81172C50.773 10.0702 51.1208 10.4688 51.3854 11.0074C51.6501 11.546 51.7825 12.2323 51.7825 13.0663C51.7825 13.8696 51.6547 14.5421 51.3993 15.0837C51.1469 15.6254 50.8053 16.0317 50.3744 16.3025C49.9466 16.5733 49.4711 16.7087 48.9479 16.7087C48.5909 16.7087 48.2816 16.6503 48.02 16.5333C47.7584 16.4164 47.5384 16.2625 47.3599 16.0717C47.1844 15.8809 47.049 15.6762 46.9536 15.4577H46.9075V19.2663H44.65ZM46.8613 13.0617C46.8613 13.4434 46.9121 13.7757 47.0136 14.0589C47.1183 14.342 47.2675 14.5621 47.4614 14.719C47.6584 14.8729 47.8938 14.9499 48.1678 14.9499C48.4447 14.9499 48.6802 14.8729 48.8741 14.719C49.068 14.5621 49.2142 14.342 49.3126 14.0589C49.4142 13.7757 49.465 13.4434 49.465 13.0617C49.465 12.6801 49.4142 12.3492 49.3126 12.0692C49.2142 11.7891 49.068 11.5721 48.8741 11.4183C48.6833 11.2644 48.4478 11.1874 48.1678 11.1874C47.8908 11.1874 47.6553 11.2628 47.4614 11.4136C47.2675 11.5644 47.1183 11.7799 47.0136 12.0599C46.9121 12.34 46.8613 12.6739 46.8613 13.0617ZM58.6852 7.15263H60.9658V13.251C60.9658 13.9558 60.7981 14.5698 60.4626 15.093C60.1271 15.6131 59.6593 16.0163 59.0592 16.3025C58.459 16.5856 57.762 16.7272 56.9679 16.7272C56.1647 16.7272 55.4629 16.5856 54.8628 16.3025C54.2627 16.0163 53.7964 15.6131 53.464 15.093C53.1316 14.5698 52.9654 13.9558 52.9654 13.251V7.15263H55.2506V13.0525C55.2506 13.3787 55.3214 13.6696 55.4629 13.925C55.6076 14.1804 55.8092 14.3805 56.0677 14.5251C56.3262 14.6698 56.6263 14.7421 56.9679 14.7421C57.3095 14.7421 57.6081 14.6698 57.8635 14.5251C58.122 14.3805 58.3236 14.1804 58.4683 13.925C58.6129 13.6696 58.6852 13.3787 58.6852 13.0525V7.15263ZM62.398 19.2663V9.51627H64.6324V10.7304H64.7017C64.794 10.515 64.9248 10.3072 65.0941 10.1072C65.2664 9.90713 65.4849 9.74401 65.7496 9.61783C66.0174 9.48857 66.3374 9.42394 66.7098 9.42394C67.2023 9.42394 67.6624 9.5532 68.0902 9.81172C68.521 10.0702 68.8688 10.4688 69.1335 11.0074C69.3982 11.546 69.5305 12.2323 69.5305 13.0663C69.5305 13.8696 69.4028 14.5421 69.1473 15.0837C68.895 15.6254 68.5534 16.0317 68.1225 16.3025C67.6947 16.5733 67.2192 16.7087 66.696 16.7087C66.339 16.7087 66.0297 16.6503 65.7681 16.5333C65.5065 16.4164 65.2864 16.2625 65.1079 16.0717C64.9325 15.8809 64.7971 15.6762 64.7017 15.4577H64.6555V19.2663H62.398ZM64.6093 13.0617C64.6093 13.4434 64.6601 13.7757 64.7617 14.0589C64.8663 14.342 65.0156 14.5621 65.2095 14.719C65.4065 14.8729 65.6419 14.9499 65.9158 14.9499C66.1928 14.9499 66.4282 14.8729 66.6221 14.719C66.816 14.5621 66.9622 14.342 67.0607 14.0589C67.1623 13.7757 67.213 13.4434 67.213 13.0617C67.213 12.6801 67.1623 12.3492 67.0607 12.0692C66.9622 11.7891 66.816 11.5721 66.6221 11.4183C66.4313 11.2644 66.1959 11.1874 65.9158 11.1874C65.6388 11.1874 65.4034 11.2628 65.2095 11.4136C65.0156 11.5644 64.8663 11.7799 64.7617 12.0599C64.6601 12.34 64.6093 12.6739 64.6093 13.0617ZM72.9986 7.15263V16.6072H70.7135V7.15263H72.9986ZM82.4797 7.15263V16.6072H80.5408L76.7784 11.1505H76.7184V16.6072H74.4332V7.15263H76.3998L80.1207 12.6001H80.1992V7.15263H82.4797Z" fill="#243A5A"/>
</svg>
